<?xml version="1.0" standalone="no"?>
<!DOCTYPE svg PUBLIC "-//W3C//DTD SVG 20010904//EN"
 "http://www.w3.org/TR/2001/REC-SVG-20010904/DTD/svg10.dtd">
<svg version="1.0" xmlns="http://www.w3.org/2000/svg"
 width="512.000000pt" height="512.000000pt" viewBox="0 0 512.000000 512.000000"
 preserveAspectRatio="xMidYMid meet">
<metadata>
Created by potrace 1.14, written by Peter Selinger 2001-2017
</metadata>
<g transform="translate(0.000000,512.000000) scale(0.100000,-0.100000)"
fill="#000000" stroke="none">
<path d="M675 5109 c-344 -57 -613 -330 -665 -674 -7 -48 -10 -661 -8 -1920
l3 -1850 22 -70 c32 -103 58 -160 108 -234 85 -128 237 -254 362 -301 158 -59
2 -55 2063 -55 1800 0 1888 1 1950 18 154 44 270 110 373 214 107 107 171 219
215 378 16 55 17 216 17 1945 0 1800 -1 1888 -18 1950 -44 154 -110 270 -214
373 -104 105 -210 166 -373 215 -50 16 -209 17 -1920 18 -1026 1 -1887 -2
-1915 -7z m885 -870 c50 -39 90 -73 90 -75 0 -3 -49 -67 -110 -144 l-110 -139
0 -173 c0 -266 -2 -268 -310 -268 -217 0 -244 5 -290 54 -24 27 -25 32 -28
199 -3 139 -7 175 -19 190 -15 15 -15 19 0 35 10 11 17 36 17 61 0 56 26 109
64 132 28 17 53 19 247 19 l216 0 69 90 c38 49 70 90 72 90 1 0 43 -32 92 -71z
m2752 -192 c105 -52 162 -143 162 -262 -1 -118 -53 -203 -156 -254 l-61 -31
-1007 0 c-1140 0 -1066 -5 -1151 80 -110 110 -117 281 -16 396 22 24 53 52 71
61 81 43 67 42 1106 40 l995 -2 57 -28z m-2752 -1008 c50 -39 90 -73 90 -75 0
-3 -49 -67 -110 -144 l-110 -139 0 -173 c0 -266 -2 -268 -310 -268 -217 0
-244 5 -290 54 -24 27 -25 32 -28 199 -3 139 -7 175 -19 190 -15 15 -15 19 0
35 10 11 17 36 17 61 0 56 26 109 64 132 28 17 53 19 247 19 l216 0 69 90 c38
49 70 90 72 90 1 0 43 -32 92 -71z m2752 -192 c105 -52 162 -143 162 -262 -1
-118 -53 -203 -156 -254 l-61 -31 -1007 0 c-1140 0 -1066 -5 -1151 80 -110
110 -117 281 -16 396 22 24 53 52 71 61 81 43 67 42 1106 40 l995 -2 57 -28z
m-2916 -1159 l34 -38 0 -257 c0 -364 10 -353 -310 -353 -217 0 -244 5 -290 54
l-25 28 -3 248 c-5 374 -16 362 326 358 l234 -3 34 -37z m2916 -41 c105 -52
162 -143 162 -262 -1 -118 -53 -203 -156 -254 l-61 -31 -1007 0 c-1140 0
-1066 -5 -1151 80 -110 110 -117 281 -16 396 22 24 53 52 71 61 81 43 67 42
1106 40 l995 -2 57 -28z"/>
</g>
</svg>
